<svg width="1400" height="760" viewBox="0 0 1400 760" fill="none" xmlns="http://www.w3.org/2000/svg">
  <defs>
    <linearGradient id="bg" x1="120" y1="80" x2="1280" y2="680" gradientUnits="userSpaceOnUse">
      <stop stop-color="#F8E1D3"/>
      <stop offset="1" stop-color="#F4D7C7"/>
    </linearGradient>
    <linearGradient id="dark" x1="154" y1="106" x2="662" y2="314" gradientUnits="userSpaceOnUse">
      <stop stop-color="#191919"/>
      <stop offset="1" stop-color="#101010"/>
    </linearGradient>
  </defs>

  <rect x="60" y="48" width="1280" height="664" rx="34" fill="url(#bg)" stroke="#161616" stroke-width="2"/>

  <rect x="100" y="86" width="540" height="192" rx="34" fill="url(#dark)"/>
  <rect x="128" y="118" width="88" height="88" rx="22" fill="#FFF7F3"/>
  <path d="M146 140H204L192 152H146V140Z" fill="#161616"/>
  <path d="M146 164H198L186 176H146V164Z" fill="#161616"/>
  <path d="M146 188H192L180 200H146V188Z" fill="#161616"/>
  <path d="M186 140H202L190 152H174L186 140Z" fill="#FF8A52"/>
  <path d="M180 164H196L184 176H168L180 164Z" fill="#FF8A52"/>
  <text x="238" y="158" fill="#F4D7C7" font-family="Arial, Helvetica, sans-serif" font-size="28" font-weight="700">Dageno Open API + Agents</text>
  <text x="128" y="228" fill="white" font-family="Arial, Helvetica, sans-serif" font-size="68" font-weight="800">GEO Content Writer</text>
  <text x="128" y="268" fill="#F4D7C7" font-family="Arial, Helvetica, sans-serif" font-size="28" font-weight="700">Turn GEO opportunities into a content plan</text>

  <text x="140" y="380" fill="#161616" font-family="Arial, Helvetica, sans-serif" font-size="34" font-weight="800">Input</text>
  <text x="618" y="380" fill="#161616" font-family="Arial, Helvetica, sans-serif" font-size="34" font-weight="800">Process</text>
  <text x="1098" y="380" fill="#161616" font-family="Arial, Helvetica, sans-serif" font-size="34" font-weight="800">Output</text>

  <rect x="140" y="420" width="280" height="74" rx="22" fill="#FFF7F3" stroke="#161616" stroke-width="2"/>
  <text x="280" y="466" text-anchor="middle" fill="#1D1D1D" font-family="Arial, Helvetica, sans-serif" font-size="28" font-weight="700">GEO opportunity</text>

  <rect x="140" y="520" width="280" height="74" rx="22" fill="#FFF7F3" stroke="#161616" stroke-width="2"/>
  <text x="280" y="566" text-anchor="middle" fill="#1D1D1D" font-family="Arial, Helvetica, sans-serif" font-size="28" font-weight="700">Response detail</text>

  <rect x="140" y="620" width="280" height="74" rx="22" fill="#FFF7F3" stroke="#161616" stroke-width="2"/>
  <text x="280" y="666" text-anchor="middle" fill="#1D1D1D" font-family="Arial, Helvetica, sans-serif" font-size="28" font-weight="700">Citation URLs</text>

  <rect x="560" y="420" width="330" height="74" rx="22" fill="#FFF7F3" stroke="#FF7A3C" stroke-width="2"/>
  <text x="725" y="466" text-anchor="middle" fill="#1D1D1D" font-family="Arial, Helvetica, sans-serif" font-size="28" font-weight="700">Analyze the gap</text>

  <rect x="560" y="520" width="330" height="74" rx="22" fill="#FFF7F3" stroke="#FF7A3C" stroke-width="2"/>
  <text x="725" y="566" text-anchor="middle" fill="#1D1D1D" font-family="Arial, Helvetica, sans-serif" font-size="28" font-weight="700">Expand with fanout</text>

  <rect x="560" y="620" width="330" height="74" rx="22" fill="#FFF7F3" stroke="#FF7A3C" stroke-width="2"/>
  <text x="725" y="666" text-anchor="middle" fill="#1D1D1D" font-family="Arial, Helvetica, sans-serif" font-size="28" font-weight="700">Map to search volume</text>

  <rect x="1000" y="420" width="280" height="74" rx="22" fill="#FFF7F3" stroke="#161616" stroke-width="2"/>
  <text x="1140" y="466" text-anchor="middle" fill="#1D1D1D" font-family="Arial, Helvetica, sans-serif" font-size="28" font-weight="700">Content plan</text>

  <rect x="1000" y="520" width="280" height="74" rx="22" fill="#FFF7F3" stroke="#161616" stroke-width="2"/>
  <text x="1140" y="566" text-anchor="middle" fill="#1D1D1D" font-family="Arial, Helvetica, sans-serif" font-size="28" font-weight="700">First article</text>

  <rect x="1000" y="620" width="280" height="74" rx="22" fill="#171717"/>
  <text x="1140" y="666" text-anchor="middle" fill="white" font-family="Arial, Helvetica, sans-serif" font-size="28" font-weight="800">Future landing page</text>

  <circle cx="468" cy="457" r="14" fill="#FF7A3C"/>
  <circle cx="468" cy="557" r="14" fill="#FF7A3C"/>
  <circle cx="468" cy="657" r="14" fill="#FF7A3C"/>
  <path d="M420 457H546" stroke="#FF7A3C" stroke-width="8" stroke-linecap="round"/>
  <path d="M420 557H546" stroke="#FF7A3C" stroke-width="8" stroke-linecap="round"/>
  <path d="M420 657H546" stroke="#FF7A3C" stroke-width="8" stroke-linecap="round"/>

  <circle cx="928" cy="507" r="14" fill="#FF7A3C"/>
  <circle cx="928" cy="607" r="14" fill="#FF7A3C"/>
  <path d="M888 507H980" stroke="#FF7A3C" stroke-width="8" stroke-linecap="round"/>
  <path d="M888 607H980" stroke="#FF7A3C" stroke-width="8" stroke-linecap="round"/>
</svg>
